<svg width="310" height="40" viewBox="0 0 310 40" fill="none" xmlns="http://www.w3.org/2000/svg">
<g filter="url(#filter0_d)">
<g filter="url(#filter1_d)">
<path d="M2 5C2 2.79086 3.79086 1 6 1H304C306.209 1 308 2.79086 308 5V33C308 35.2091 306.209 37 304 37H6C3.79086 37 2 35.2091 2 33V5Z" fill="white"/>
<path d="M11.1186 24H17.5618V22.6776H12.6548V19.5604H17.169V18.2429H12.6548V15.1406H17.5021V13.8182H11.1186V24ZM20.9213 19.4659C20.9213 18.2479 21.6671 17.5518 22.7012 17.5518C23.7104 17.5518 24.3219 18.2131 24.3219 19.3217V24H25.8084V19.1428C25.8084 17.2536 24.7694 16.2642 23.2083 16.2642C22.0598 16.2642 21.3091 16.7962 20.9561 17.6065H20.8617V16.3636H19.4348V24H20.9213V19.4659ZM31.3667 16.3636H29.8006V14.5341H28.3141V16.3636H27.1955V17.5568H28.3141V22.0661C28.3091 23.4531 29.3681 24.1243 30.5414 24.0994C31.0137 24.0945 31.3319 24.005 31.5059 23.9403L31.2374 22.7124C31.138 22.7322 30.954 22.777 30.7154 22.777C30.2331 22.777 29.8006 22.6179 29.8006 21.7578V17.5568H31.3667V16.3636ZM36.2202 24.1541C37.8857 24.1541 39.0639 23.3338 39.402 22.0909L37.995 21.8374C37.7266 22.5582 37.0803 22.9261 36.2351 22.9261C34.9624 22.9261 34.1072 22.1009 34.0675 20.6293H39.4964V20.1023C39.4964 17.343 37.8459 16.2642 36.1158 16.2642C33.9879 16.2642 32.5859 17.8849 32.5859 20.2315C32.5859 22.603 33.968 24.1541 36.2202 24.1541ZM34.0724 19.5156C34.1321 18.4318 34.9176 17.4922 36.1257 17.4922C37.2791 17.4922 38.0348 18.3473 38.0398 19.5156H34.0724ZM41.1458 24H42.6323V19.3366C42.6323 18.3374 43.4029 17.6165 44.4569 17.6165C44.7651 17.6165 45.1131 17.6712 45.2324 17.706V16.2841C45.0833 16.2642 44.79 16.2493 44.601 16.2493C43.7061 16.2493 42.9405 16.7564 42.6621 17.5767H42.5826V16.3636H41.1458V24ZM50.2239 26.8636H51.7104V22.8118H51.7999C52.0684 23.299 52.6152 24.1491 54.0073 24.1491C55.8567 24.1491 57.199 22.6676 57.199 20.1967C57.199 17.7209 55.8368 16.2642 53.9924 16.2642C52.5755 16.2642 52.0634 17.1293 51.7999 17.6016H51.6756V16.3636H50.2239V26.8636ZM51.6806 20.1818C51.6806 18.5859 52.3766 17.527 53.6742 17.527C55.0215 17.527 55.6976 18.6655 55.6976 20.1818C55.6976 21.7131 55.0016 22.8814 53.6742 22.8814C52.3965 22.8814 51.6806 21.7876 51.6806 20.1818ZM60.351 19.4659C60.351 18.2479 61.1216 17.5518 62.1806 17.5518C63.2047 17.5518 63.8162 18.2031 63.8162 19.3217V24H65.3027V19.1428C65.3027 17.2386 64.2587 16.2642 62.6877 16.2642C61.4995 16.2642 60.7836 16.7812 60.4256 17.6065H60.3311V13.8182H58.8645V24H60.351V19.4659ZM70.503 24.1541C72.6557 24.1541 74.0627 22.5781 74.0627 20.2166C74.0627 17.8402 72.6557 16.2642 70.503 16.2642C68.3503 16.2642 66.9434 17.8402 66.9434 20.2166C66.9434 22.5781 68.3503 24.1541 70.503 24.1541ZM70.508 22.9062C69.101 22.9062 68.4448 21.6783 68.4448 20.2116C68.4448 18.75 69.101 17.5071 70.508 17.5071C71.905 17.5071 72.5613 18.75 72.5613 20.2116C72.5613 21.6783 71.905 22.9062 70.508 22.9062ZM77.2085 19.4659C77.2085 18.2479 77.9542 17.5518 78.9883 17.5518C79.9975 17.5518 80.609 18.2131 80.609 19.3217V24H82.0955V19.1428C82.0955 17.2536 81.0565 16.2642 79.4954 16.2642C78.3469 16.2642 77.5962 16.7962 77.2433 17.6065H77.1488V16.3636H75.7219V24H77.2085V19.4659ZM87.3803 24.1541C89.0458 24.1541 90.2241 23.3338 90.5621 22.0909L89.1552 21.8374C88.8867 22.5582 88.2404 22.9261 87.3952 22.9261C86.1225 22.9261 85.2674 22.1009 85.2276 20.6293H90.6566V20.1023C90.6566 17.343 89.006 16.2642 87.2759 16.2642C85.1481 16.2642 83.7461 17.8849 83.7461 20.2315C83.7461 22.603 85.1282 24.1541 87.3803 24.1541ZM85.2326 19.5156C85.2923 18.4318 86.0778 17.4922 87.2859 17.4922C88.4393 17.4922 89.195 18.3473 89.1999 19.5156H85.2326ZM97.4975 19.4659C97.4975 18.2479 98.2433 17.5518 99.2773 17.5518C100.287 17.5518 100.898 18.2131 100.898 19.3217V24H102.385V19.1428C102.385 17.2536 101.346 16.2642 99.7844 16.2642C98.636 16.2642 97.8853 16.7962 97.5323 17.6065H97.4379V16.3636H96.011V24H97.4975V19.4659ZM109.216 20.8331C109.221 22.1307 108.256 22.7472 107.421 22.7472C106.501 22.7472 105.865 22.081 105.865 21.0419V16.3636H104.378V21.2209C104.378 23.1151 105.417 24.0994 106.884 24.0994C108.032 24.0994 108.813 23.4929 109.166 22.6776H109.245V24H110.707V16.3636H109.216V20.8331ZM112.704 24H114.191V19.2919C114.191 18.2628 114.912 17.5469 115.757 17.5469C116.582 17.5469 117.154 18.0938 117.154 18.924V24H118.635V19.1328C118.635 18.2131 119.197 17.5469 120.167 17.5469C120.952 17.5469 121.599 17.9844 121.599 19.0185V24H123.085V18.8793C123.085 17.1342 122.111 16.2642 120.729 16.2642C119.63 16.2642 118.805 16.7912 118.437 17.6065H118.357C118.024 16.7713 117.323 16.2642 116.304 16.2642C115.295 16.2642 114.544 16.7663 114.226 17.6065H114.131V16.3636H112.704V24ZM125.197 24H126.648V22.8118H126.773C127.041 23.299 127.588 24.1491 128.98 24.1491C130.83 24.1491 132.172 22.6676 132.172 20.1967C132.172 17.7209 130.81 16.2642 128.965 16.2642C127.548 16.2642 127.036 17.1293 126.773 17.6016H126.683V13.8182H125.197V24ZM126.653 20.1818C126.653 18.5859 127.349 17.527 128.647 17.527C129.994 17.527 130.67 18.6655 130.67 20.1818C130.67 21.7131 129.974 22.8814 128.647 22.8814C127.369 22.8814 126.653 21.7876 126.653 20.1818ZM137.132 24.1541C138.798 24.1541 139.976 23.3338 140.314 22.0909L138.907 21.8374C138.639 22.5582 137.992 22.9261 137.147 22.9261C135.874 22.9261 135.019 22.1009 134.98 20.6293H140.409V20.1023C140.409 17.343 138.758 16.2642 137.028 16.2642C134.9 16.2642 133.498 17.8849 133.498 20.2315C133.498 22.603 134.88 24.1541 137.132 24.1541ZM134.985 19.5156C135.044 18.4318 135.83 17.4922 137.038 17.4922C138.191 17.4922 138.947 18.3473 138.952 19.5156H134.985ZM142.058 24H143.544V19.3366C143.544 18.3374 144.315 17.6165 145.369 17.6165C145.677 17.6165 146.025 17.6712 146.145 17.706V16.2841C145.995 16.2642 145.702 16.2493 145.513 16.2493C144.618 16.2493 143.853 16.7564 143.574 17.5767H143.495V16.3636H142.058V24Z" fill="#B2B5BE"/>
<path d="M6 2H304V0H6V2ZM307 5V33H309V5H307ZM304 36H6V38H304V36ZM3 33V5H1V33H3ZM6 36C4.34315 36 3 34.6569 3 33H1C1 35.7614 3.23858 38 6 38V36ZM307 33C307 34.6569 305.657 36 304 36V38C306.761 38 309 35.7614 309 33H307ZM304 2C305.657 2 307 3.34315 307 5H309C309 2.23858 306.761 0 304 0V2ZM6 0C3.23858 0 1 2.23858 1 5H3C3 3.34315 4.34315 2 6 2V0Z" fill="#E3E8EE"/>
</g>
</g>
<defs>
<filter id="filter0_d" x="0" y="0" width="310" height="40" filterUnits="userSpaceOnUse" color-interpolation-filters="sRGB">
<feFlood flood-opacity="0" result="BackgroundImageFix"/>
<feColorMatrix in="SourceAlpha" type="matrix" values="0 0 0 0 0 0 0 0 0 0 0 0 0 0 0 0 0 0 127 0" result="hardAlpha"/>
<feOffset dy="1"/>
<feGaussianBlur stdDeviation="1"/>
<feColorMatrix type="matrix" values="0 0 0 0 0.215686 0 0 0 0 0.254902 0 0 0 0 0.317647 0 0 0 0.08 0"/>
<feBlend mode="normal" in2="BackgroundImageFix" result="effect1_dropShadow"/>
<feBlend mode="normal" in="SourceGraphic" in2="effect1_dropShadow" result="shape"/>
</filter>
<filter id="filter1_d" x="0" y="0" width="310" height="40" filterUnits="userSpaceOnUse" color-interpolation-filters="sRGB">
<feFlood flood-opacity="0" result="BackgroundImageFix"/>
<feColorMatrix in="SourceAlpha" type="matrix" values="0 0 0 0 0 0 0 0 0 0 0 0 0 0 0 0 0 0 127 0" result="hardAlpha"/>
<feOffset dy="1"/>
<feGaussianBlur stdDeviation="1"/>
<feColorMatrix type="matrix" values="0 0 0 0 0.215686 0 0 0 0 0.254902 0 0 0 0 0.317647 0 0 0 0.08 0"/>
<feBlend mode="normal" in2="BackgroundImageFix" result="effect1_dropShadow"/>
<feBlend mode="normal" in="SourceGraphic" in2="effect1_dropShadow" result="shape"/>
</filter>
</defs>
</svg>
