<svg width="310" height="40" viewBox="0 0 310 40" fill="none" xmlns="http://www.w3.org/2000/svg">
<g filter="url(#filter0_d)">
<g filter="url(#filter1_d)">
<path d="M2 5C2 2.79086 3.79086 1 6 1H304C306.209 1 308 2.79086 308 5V33C308 35.2091 306.209 37 304 37H6C3.79086 37 2 35.2091 2 33V5Z" fill="white"/>
<path d="M11.1186 24H17.5618V22.6776H12.6548V19.5604H17.169V18.2429H12.6548V15.1406H17.5021V13.8182H11.1186V24ZM20.9213 19.4659C20.9213 18.2479 21.6671 17.5518 22.7012 17.5518C23.7104 17.5518 24.3219 18.2131 24.3219 19.3217V24H25.8084V19.1428C25.8084 17.2536 24.7694 16.2642 23.2083 16.2642C22.0598 16.2642 21.3091 16.7962 20.9561 17.6065H20.8617V16.3636H19.4348V24H20.9213V19.4659ZM31.3667 16.3636H29.8006V14.5341H28.3141V16.3636H27.1955V17.5568H28.3141V22.0661C28.3091 23.4531 29.3681 24.1243 30.5414 24.0994C31.0137 24.0945 31.3319 24.005 31.5059 23.9403L31.2374 22.7124C31.138 22.7322 30.954 22.777 30.7154 22.777C30.2331 22.777 29.8006 22.6179 29.8006 21.7578V17.5568H31.3667V16.3636ZM36.2202 24.1541C37.8857 24.1541 39.0639 23.3338 39.402 22.0909L37.995 21.8374C37.7266 22.5582 37.0803 22.9261 36.2351 22.9261C34.9624 22.9261 34.1072 22.1009 34.0675 20.6293H39.4964V20.1023C39.4964 17.343 37.8459 16.2642 36.1158 16.2642C33.9879 16.2642 32.5859 17.8849 32.5859 20.2315C32.5859 22.603 33.968 24.1541 36.2202 24.1541ZM34.0724 19.5156C34.1321 18.4318 34.9176 17.4922 36.1257 17.4922C37.2791 17.4922 38.0348 18.3473 38.0398 19.5156H34.0724ZM41.1458 24H42.6323V19.3366C42.6323 18.3374 43.4029 17.6165 44.4569 17.6165C44.7651 17.6165 45.1131 17.6712 45.2324 17.706V16.2841C45.0833 16.2642 44.79 16.2493 44.601 16.2493C43.7061 16.2493 42.9405 16.7564 42.6621 17.5767H42.5826V16.3636H41.1458V24ZM50.2239 26.8636H51.7104V22.8118H51.7999C52.0684 23.299 52.6152 24.1491 54.0073 24.1491C55.8567 24.1491 57.199 22.6676 57.199 20.1967C57.199 17.7209 55.8368 16.2642 53.9924 16.2642C52.5755 16.2642 52.0634 17.1293 51.7999 17.6016H51.6756V16.3636H50.2239V26.8636ZM51.6806 20.1818C51.6806 18.5859 52.3766 17.527 53.6742 17.527C55.0215 17.527 55.6976 18.6655 55.6976 20.1818C55.6976 21.7131 55.0016 22.8814 53.6742 22.8814C52.3965 22.8814 51.6806 21.7876 51.6806 20.1818ZM61.0868 24.169C62.3496 24.169 63.0605 23.5277 63.3439 22.956H63.4036V24H64.8553V18.929C64.8553 16.7067 63.1053 16.2642 61.8922 16.2642C60.5101 16.2642 59.2374 16.821 58.7402 18.2131L60.1373 18.5312C60.356 17.9893 60.9128 17.4673 61.9121 17.4673C62.8716 17.4673 63.3638 17.9695 63.3638 18.8345V18.8693C63.3638 19.4112 62.807 19.4013 61.4348 19.5604C59.9881 19.7294 58.5066 20.1072 58.5066 21.8423C58.5066 23.3438 59.6351 24.169 61.0868 24.169ZM61.41 22.9759C60.5698 22.9759 59.9632 22.598 59.9632 21.8622C59.9632 21.0668 60.6692 20.7834 61.5293 20.669C62.0115 20.6044 63.155 20.4751 63.3688 20.2614V21.2457C63.3688 22.1506 62.6479 22.9759 61.41 22.9759ZM72.5575 18.228C72.2493 17.0398 71.3196 16.2642 69.669 16.2642C67.9439 16.2642 66.7209 17.174 66.7209 18.5263C66.7209 19.6101 67.3771 20.331 68.8089 20.6491L70.1016 20.9325C70.8374 21.0966 71.1804 21.4247 71.1804 21.902C71.1804 22.4936 70.549 22.956 69.5746 22.956C68.6847 22.956 68.1129 22.5732 67.9339 21.8224L66.4972 22.0412C66.7457 23.3935 67.8693 24.1541 69.5845 24.1541C71.429 24.1541 72.7067 23.1747 72.7067 21.7926C72.7067 20.7138 72.0206 20.0476 70.6186 19.7244L69.4055 19.446C68.5653 19.2472 68.2024 18.9638 68.2074 18.4467C68.2024 17.8601 68.8388 17.4425 69.6839 17.4425C70.6087 17.4425 71.0362 17.9545 71.2102 18.4666L72.5575 18.228ZM80.0634 18.228C79.7551 17.0398 78.8255 16.2642 77.1749 16.2642C75.4498 16.2642 74.2267 17.174 74.2267 18.5263C74.2267 19.6101 74.883 20.331 76.3148 20.6491L77.6074 20.9325C78.3432 21.0966 78.6863 21.4247 78.6863 21.902C78.6863 22.4936 78.0549 22.956 77.0804 22.956C76.1905 22.956 75.6188 22.5732 75.4398 21.8224L74.003 22.0412C74.2516 23.3935 75.3752 24.1541 77.0904 24.1541C78.9348 24.1541 80.2125 23.1747 80.2125 21.7926C80.2125 20.7138 79.5265 20.0476 78.1245 19.7244L76.9114 19.446C76.0712 19.2472 75.7083 18.9638 75.7132 18.4467C75.7083 17.8601 76.3446 17.4425 77.1898 17.4425C78.1145 17.4425 78.5421 17.9545 78.7161 18.4666L80.0634 18.228ZM83.5025 24H85.0138L86.565 18.4865H86.6793L88.2305 24H89.7468L91.989 16.3636H90.4528L88.9663 21.9467H88.8917L87.4002 16.3636H85.864L84.3626 21.9716H84.288L82.7915 16.3636H81.2553L83.5025 24ZM96.3839 24.1541C98.5366 24.1541 99.9435 22.5781 99.9435 20.2166C99.9435 17.8402 98.5366 16.2642 96.3839 16.2642C94.2312 16.2642 92.8242 17.8402 92.8242 20.2166C92.8242 22.5781 94.2312 24.1541 96.3839 24.1541ZM96.3888 22.9062C94.9819 22.9062 94.3256 21.6783 94.3256 20.2116C94.3256 18.75 94.9819 17.5071 96.3888 17.5071C97.7859 17.5071 98.4421 18.75 98.4421 20.2116C98.4421 21.6783 97.7859 22.9062 96.3888 22.9062ZM101.603 24H103.089V19.3366C103.089 18.3374 103.86 17.6165 104.914 17.6165C105.222 17.6165 105.57 17.6712 105.689 17.706V16.2841C105.54 16.2642 105.247 16.2493 105.058 16.2493C104.163 16.2493 103.398 16.7564 103.119 17.5767H103.04V16.3636H101.603V24ZM109.561 24.1491C110.953 24.1491 111.5 23.299 111.768 22.8118H111.893V24H113.344V13.8182H111.858V17.6016H111.768C111.5 17.1293 110.993 16.2642 109.571 16.2642C107.727 16.2642 106.369 17.7209 106.369 20.1967C106.369 22.6676 107.707 24.1491 109.561 24.1491ZM109.889 22.8814C108.562 22.8814 107.871 21.7131 107.871 20.1818C107.871 18.6655 108.547 17.527 109.889 17.527C111.187 17.527 111.883 18.5859 111.883 20.1818C111.883 21.7876 111.172 22.8814 109.889 22.8814Z" fill="#B2B5BE"/>
<path d="M6 2H304V0H6V2ZM307 5V33H309V5H307ZM304 36H6V38H304V36ZM3 33V5H1V33H3ZM6 36C4.34315 36 3 34.6569 3 33H1C1 35.7614 3.23858 38 6 38V36ZM307 33C307 34.6569 305.657 36 304 36V38C306.761 38 309 35.7614 309 33H307ZM304 2C305.657 2 307 3.34315 307 5H309C309 2.23858 306.761 0 304 0V2ZM6 0C3.23858 0 1 2.23858 1 5H3C3 3.34315 4.34315 2 6 2V0Z" fill="#E3E8EE"/>
</g>
</g>
<defs>
<filter id="filter0_d" x="0" y="0" width="310" height="40" filterUnits="userSpaceOnUse" color-interpolation-filters="sRGB">
<feFlood flood-opacity="0" result="BackgroundImageFix"/>
<feColorMatrix in="SourceAlpha" type="matrix" values="0 0 0 0 0 0 0 0 0 0 0 0 0 0 0 0 0 0 127 0" result="hardAlpha"/>
<feOffset dy="1"/>
<feGaussianBlur stdDeviation="1"/>
<feColorMatrix type="matrix" values="0 0 0 0 0.215686 0 0 0 0 0.254902 0 0 0 0 0.317647 0 0 0 0.08 0"/>
<feBlend mode="normal" in2="BackgroundImageFix" result="effect1_dropShadow"/>
<feBlend mode="normal" in="SourceGraphic" in2="effect1_dropShadow" result="shape"/>
</filter>
<filter id="filter1_d" x="0" y="0" width="310" height="40" filterUnits="userSpaceOnUse" color-interpolation-filters="sRGB">
<feFlood flood-opacity="0" result="BackgroundImageFix"/>
<feColorMatrix in="SourceAlpha" type="matrix" values="0 0 0 0 0 0 0 0 0 0 0 0 0 0 0 0 0 0 127 0" result="hardAlpha"/>
<feOffset dy="1"/>
<feGaussianBlur stdDeviation="1"/>
<feColorMatrix type="matrix" values="0 0 0 0 0.215686 0 0 0 0 0.254902 0 0 0 0 0.317647 0 0 0 0.08 0"/>
<feBlend mode="normal" in2="BackgroundImageFix" result="effect1_dropShadow"/>
<feBlend mode="normal" in="SourceGraphic" in2="effect1_dropShadow" result="shape"/>
</filter>
</defs>
</svg>
