<svg width="310" height="40" viewBox="0 0 310 40" fill="none" xmlns="http://www.w3.org/2000/svg">
<g filter="url(#filter0_d)">
<g filter="url(#filter1_d)">
<path d="M2 5C2 2.79086 3.79086 1 6 1H304C306.209 1 308 2.79086 308 5V33C308 35.2091 306.209 37 304 37H6C3.79086 37 2 35.2091 2 33V5Z" fill="white"/>
<path d="M11.1186 24H17.5618V22.6776H12.6548V19.5604H17.169V18.2429H12.6548V15.1406H17.5021V13.8182H11.1186V24ZM20.9213 19.4659C20.9213 18.2479 21.6671 17.5518 22.7012 17.5518C23.7104 17.5518 24.3219 18.2131 24.3219 19.3217V24H25.8084V19.1428C25.8084 17.2536 24.7694 16.2642 23.2083 16.2642C22.0598 16.2642 21.3091 16.7962 20.9561 17.6065H20.8617V16.3636H19.4348V24H20.9213V19.4659ZM31.3667 16.3636H29.8006V14.5341H28.3141V16.3636H27.1955V17.5568H28.3141V22.0661C28.3091 23.4531 29.3681 24.1243 30.5414 24.0994C31.0137 24.0945 31.3319 24.005 31.5059 23.9403L31.2374 22.7124C31.138 22.7322 30.954 22.777 30.7154 22.777C30.2331 22.777 29.8006 22.6179 29.8006 21.7578V17.5568H31.3667V16.3636ZM36.2202 24.1541C37.8857 24.1541 39.0639 23.3338 39.402 22.0909L37.995 21.8374C37.7266 22.5582 37.0803 22.9261 36.2351 22.9261C34.9624 22.9261 34.1072 22.1009 34.0675 20.6293H39.4964V20.1023C39.4964 17.343 37.8459 16.2642 36.1158 16.2642C33.9879 16.2642 32.5859 17.8849 32.5859 20.2315C32.5859 22.603 33.968 24.1541 36.2202 24.1541ZM34.0724 19.5156C34.1321 18.4318 34.9176 17.4922 36.1257 17.4922C37.2791 17.4922 38.0348 18.3473 38.0398 19.5156H34.0724ZM41.1458 24H42.6323V19.3366C42.6323 18.3374 43.4029 17.6165 44.4569 17.6165C44.7651 17.6165 45.1131 17.6712 45.2324 17.706V16.2841C45.0833 16.2642 44.79 16.2493 44.601 16.2493C43.7061 16.2493 42.9405 16.7564 42.6621 17.5767H42.5826V16.3636H41.1458V24ZM55.0613 20.8331C55.0662 22.1307 54.1017 22.7472 53.2665 22.7472C52.3468 22.7472 51.7104 22.081 51.7104 21.0419V16.3636H50.2239V21.2209C50.2239 23.1151 51.263 24.0994 52.7296 24.0994C53.878 24.0994 54.6586 23.4929 55.0115 22.6776H55.0911V24H56.5527V16.3636H55.0613V20.8331ZM64.2724 18.228C63.9641 17.0398 63.0344 16.2642 61.3839 16.2642C59.6587 16.2642 58.4357 17.174 58.4357 18.5263C58.4357 19.6101 59.092 20.331 60.5238 20.6491L61.8164 20.9325C62.5522 21.0966 62.8952 21.4247 62.8952 21.902C62.8952 22.4936 62.2638 22.956 61.2894 22.956C60.3995 22.956 59.8278 22.5732 59.6488 21.8224L58.212 22.0412C58.4606 23.3935 59.5842 24.1541 61.2994 24.1541C63.1438 24.1541 64.4215 23.1747 64.4215 21.7926C64.4215 20.7138 63.7354 20.0476 62.3335 19.7244L61.1204 19.446C60.2802 19.2472 59.9173 18.9638 59.9222 18.4467C59.9173 17.8601 60.5536 17.4425 61.3988 17.4425C62.3235 17.4425 62.7511 17.9545 62.9251 18.4666L64.2724 18.228ZM69.3471 24.1541C71.0126 24.1541 72.1909 23.3338 72.5289 22.0909L71.122 21.8374C70.8535 22.5582 70.2072 22.9261 69.362 22.9261C68.0893 22.9261 67.2342 22.1009 67.1944 20.6293H72.6234V20.1023C72.6234 17.343 70.9728 16.2642 69.2427 16.2642C67.1149 16.2642 65.7129 17.8849 65.7129 20.2315C65.7129 22.603 67.095 24.1541 69.3471 24.1541ZM67.1994 19.5156C67.2591 18.4318 68.0446 17.4922 69.2527 17.4922C70.4061 17.4922 71.1618 18.3473 71.1667 19.5156H67.1994ZM74.2727 24H75.7592V19.3366C75.7592 18.3374 76.5298 17.6165 77.5838 17.6165C77.892 17.6165 78.2401 17.6712 78.3594 17.706V16.2841C78.2102 16.2642 77.9169 16.2493 77.728 16.2493C76.8331 16.2493 76.0675 16.7564 75.7891 17.5767H75.7095V16.3636H74.2727V24ZM85.0064 13.8182H83.4702V24H85.0064V13.8182ZM90.5398 24C93.642 24 95.4368 22.076 95.4368 18.8942C95.4368 15.7273 93.642 13.8182 90.6442 13.8182H87.2436V24H90.5398ZM88.7798 22.6577V15.1605H90.5497C92.777 15.1605 93.9254 16.4929 93.9254 18.8942C93.9254 21.3054 92.777 22.6577 90.4553 22.6577H88.7798Z" fill="#B2B5BE"/>
<path d="M6 2H304V0H6V2ZM307 5V33H309V5H307ZM304 36H6V38H304V36ZM3 33V5H1V33H3ZM6 36C4.34315 36 3 34.6569 3 33H1C1 35.7614 3.23858 38 6 38V36ZM307 33C307 34.6569 305.657 36 304 36V38C306.761 38 309 35.7614 309 33H307ZM304 2C305.657 2 307 3.34315 307 5H309C309 2.23858 306.761 0 304 0V2ZM6 0C3.23858 0 1 2.23858 1 5H3C3 3.34315 4.34315 2 6 2V0Z" fill="#E3E8EE"/>
</g>
</g>
<defs>
<filter id="filter0_d" x="0" y="0" width="310" height="41" filterUnits="userSpaceOnUse" color-interpolation-filters="sRGB">
<feFlood flood-opacity="0" result="BackgroundImageFix"/>
<feColorMatrix in="SourceAlpha" type="matrix" values="0 0 0 0 0 0 0 0 0 0 0 0 0 0 0 0 0 0 127 0" result="hardAlpha"/>
<feOffset dy="1"/>
<feGaussianBlur stdDeviation="1"/>
<feColorMatrix type="matrix" values="0 0 0 0 0.215686 0 0 0 0 0.254902 0 0 0 0 0.317647 0 0 0 0.08 0"/>
<feBlend mode="normal" in2="BackgroundImageFix" result="effect1_dropShadow"/>
<feBlend mode="normal" in="SourceGraphic" in2="effect1_dropShadow" result="shape"/>
</filter>
<filter id="filter1_d" x="0" y="0" width="310" height="40" filterUnits="userSpaceOnUse" color-interpolation-filters="sRGB">
<feFlood flood-opacity="0" result="BackgroundImageFix"/>
<feColorMatrix in="SourceAlpha" type="matrix" values="0 0 0 0 0 0 0 0 0 0 0 0 0 0 0 0 0 0 127 0" result="hardAlpha"/>
<feOffset dy="1"/>
<feGaussianBlur stdDeviation="1"/>
<feColorMatrix type="matrix" values="0 0 0 0 0.215686 0 0 0 0 0.254902 0 0 0 0 0.317647 0 0 0 0.08 0"/>
<feBlend mode="normal" in2="BackgroundImageFix" result="effect1_dropShadow"/>
<feBlend mode="normal" in="SourceGraphic" in2="effect1_dropShadow" result="shape"/>
</filter>
</defs>
</svg>
