<svg width="310" height="40" viewBox="0 0 310 40" fill="none" xmlns="http://www.w3.org/2000/svg">
<g filter="url(#filter0_d)">
<g filter="url(#filter1_d)">
<path d="M2 5C2 2.79086 3.79086 1 6 1H304C306.209 1 308 2.79086 308 5V33C308 35.2091 306.209 37 304 37H6C3.79086 37 2 35.2091 2 33V5Z" fill="white"/>
<path d="M11.1186 24H17.5618V22.6776H12.6548V19.5604H17.169V18.2429H12.6548V15.1406H17.5021V13.8182H11.1186V24ZM20.9213 19.4659C20.9213 18.2479 21.6671 17.5518 22.7012 17.5518C23.7104 17.5518 24.3219 18.2131 24.3219 19.3217V24H25.8084V19.1428C25.8084 17.2536 24.7694 16.2642 23.2083 16.2642C22.0598 16.2642 21.3091 16.7962 20.9561 17.6065H20.8617V16.3636H19.4348V24H20.9213V19.4659ZM31.3667 16.3636H29.8006V14.5341H28.3141V16.3636H27.1955V17.5568H28.3141V22.0661C28.3091 23.4531 29.3681 24.1243 30.5414 24.0994C31.0137 24.0945 31.3319 24.005 31.5059 23.9403L31.2374 22.7124C31.138 22.7322 30.954 22.777 30.7154 22.777C30.2331 22.777 29.8006 22.6179 29.8006 21.7578V17.5568H31.3667V16.3636ZM36.2202 24.1541C37.8857 24.1541 39.0639 23.3338 39.402 22.0909L37.995 21.8374C37.7266 22.5582 37.0803 22.9261 36.2351 22.9261C34.9624 22.9261 34.1072 22.1009 34.0675 20.6293H39.4964V20.1023C39.4964 17.343 37.8459 16.2642 36.1158 16.2642C33.9879 16.2642 32.5859 17.8849 32.5859 20.2315C32.5859 22.603 33.968 24.1541 36.2202 24.1541ZM34.0724 19.5156C34.1321 18.4318 34.9176 17.4922 36.1257 17.4922C37.2791 17.4922 38.0348 18.3473 38.0398 19.5156H34.0724ZM41.1458 24H42.6323V19.3366C42.6323 18.3374 43.4029 17.6165 44.4569 17.6165C44.7651 17.6165 45.1131 17.6712 45.2324 17.706V16.2841C45.0833 16.2642 44.79 16.2493 44.601 16.2493C43.7061 16.2493 42.9405 16.7564 42.6621 17.5767H42.5826V16.3636H41.1458V24ZM51.7104 19.4659C51.7104 18.2479 52.4561 17.5518 53.4902 17.5518C54.4995 17.5518 55.111 18.2131 55.111 19.3217V24H56.5975V19.1428C56.5975 17.2536 55.5584 16.2642 53.9973 16.2642C52.8489 16.2642 52.0982 16.7962 51.7452 17.6065H51.6507V16.3636H50.2239V24H51.7104V19.4659ZM60.8134 24.169C62.0762 24.169 62.7871 23.5277 63.0705 22.956H63.1301V24H64.5819V18.929C64.5819 16.7067 62.8319 16.2642 61.6188 16.2642C60.2367 16.2642 58.964 16.821 58.4668 18.2131L59.8638 18.5312C60.0826 17.9893 60.6394 17.4673 61.6387 17.4673C62.5982 17.4673 63.0904 17.9695 63.0904 18.8345V18.8693C63.0904 19.4112 62.5336 19.4013 61.1614 19.5604C59.7147 19.7294 58.2331 20.1072 58.2331 21.8423C58.2331 23.3438 59.3617 24.169 60.8134 24.169ZM61.1365 22.9759C60.2963 22.9759 59.6898 22.598 59.6898 21.8622C59.6898 21.0668 60.3958 20.7834 61.2559 20.669C61.7381 20.6044 62.8816 20.4751 63.0953 20.2614V21.2457C63.0953 22.1506 62.3745 22.9759 61.1365 22.9759ZM66.5618 24H68.0483V19.2919C68.0483 18.2628 68.7692 17.5469 69.6143 17.5469C70.4396 17.5469 71.0114 18.0938 71.0114 18.924V24H72.4929V19.1328C72.4929 18.2131 73.0547 17.5469 74.0241 17.5469C74.8097 17.5469 75.456 17.9844 75.456 19.0185V24H76.9425V18.8793C76.9425 17.1342 75.968 16.2642 74.5859 16.2642C73.4872 16.2642 72.6619 16.7912 72.294 17.6065H72.2145C71.8814 16.7713 71.1804 16.2642 70.1612 16.2642C69.152 16.2642 68.4013 16.7663 68.0831 17.6065H67.9886V16.3636H66.5618V24ZM82.226 24.1541C83.8915 24.1541 85.0698 23.3338 85.4078 22.0909L84.0009 21.8374C83.7324 22.5582 83.0861 22.9261 82.2409 22.9261C80.9682 22.9261 80.1131 22.1009 80.0733 20.6293H85.5023V20.1023C85.5023 17.343 83.8517 16.2642 82.1216 16.2642C79.9938 16.2642 78.5918 17.8849 78.5918 20.2315C78.5918 22.603 79.9739 24.1541 82.226 24.1541ZM80.0783 19.5156C80.138 18.4318 80.9235 17.4922 82.1316 17.4922C83.285 17.4922 84.0407 18.3473 84.0456 19.5156H80.0783Z" fill="#4F566B"/>
<path d="M6 2H304V0H6V2ZM307 5V33H309V5H307ZM304 36H6V38H304V36ZM3 33V5H1V33H3ZM6 36C4.34315 36 3 34.6569 3 33H1C1 35.7614 3.23858 38 6 38V36ZM307 33C307 34.6569 305.657 36 304 36V38C306.761 38 309 35.7614 309 33H307ZM304 2C305.657 2 307 3.34315 307 5H309C309 2.23858 306.761 0 304 0V2ZM6 0C3.23858 0 1 2.23858 1 5H3C3 3.34315 4.34315 2 6 2V0Z" fill="#E3E8EE"/>
</g>
</g>
<defs>
<filter id="filter0_d" x="0" y="0" width="310" height="40" filterUnits="userSpaceOnUse" color-interpolation-filters="sRGB">
<feFlood flood-opacity="0" result="BackgroundImageFix"/>
<feColorMatrix in="SourceAlpha" type="matrix" values="0 0 0 0 0 0 0 0 0 0 0 0 0 0 0 0 0 0 127 0" result="hardAlpha"/>
<feOffset dy="1"/>
<feGaussianBlur stdDeviation="1"/>
<feColorMatrix type="matrix" values="0 0 0 0 0.215686 0 0 0 0 0.254902 0 0 0 0 0.317647 0 0 0 0.08 0"/>
<feBlend mode="normal" in2="BackgroundImageFix" result="effect1_dropShadow"/>
<feBlend mode="normal" in="SourceGraphic" in2="effect1_dropShadow" result="shape"/>
</filter>
<filter id="filter1_d" x="0" y="0" width="310" height="40" filterUnits="userSpaceOnUse" color-interpolation-filters="sRGB">
<feFlood flood-opacity="0" result="BackgroundImageFix"/>
<feColorMatrix in="SourceAlpha" type="matrix" values="0 0 0 0 0 0 0 0 0 0 0 0 0 0 0 0 0 0 127 0" result="hardAlpha"/>
<feOffset dy="1"/>
<feGaussianBlur stdDeviation="1"/>
<feColorMatrix type="matrix" values="0 0 0 0 0.215686 0 0 0 0 0.254902 0 0 0 0 0.317647 0 0 0 0.08 0"/>
<feBlend mode="normal" in2="BackgroundImageFix" result="effect1_dropShadow"/>
<feBlend mode="normal" in="SourceGraphic" in2="effect1_dropShadow" result="shape"/>
</filter>
</defs>
</svg>
