<svg width="13" height="16" viewBox="0 0 13 16" fill="none" xmlns="http://www.w3.org/2000/svg">
<path d="M5.55089 11.008C5.73289 11.008 5.87589 10.8544 5.87589 10.688L5.74589 3.4176C5.74589 3.2384 5.60289 3.0976 5.42089 3.0976C5.23889 3.0976 5.09589 3.2512 5.09589 3.4176L5.22589 10.688C5.22589 10.8672 5.36889 11.008 5.55089 11.008ZM7.44889 11.008C7.63089 11.008 7.77389 10.8672 7.77389 10.688L7.90389 3.4176C7.90389 3.2384 7.76089 3.0976 7.57889 3.0976C7.39689 3.0976 7.25389 3.2384 7.25389 3.4176L7.12389 10.688C7.12389 10.8544 7.26689 11.008 7.44889 11.008ZM10.0099 3.0976C9.82789 3.0976 9.68489 3.22561 9.67189 3.4048L9.41189 11.3664C9.41189 11.584 9.22989 11.7632 9.00889 11.7632H3.99089C3.76989 11.7632 3.58789 11.584 3.58789 11.3536L3.32789 3.4048C3.32789 3.22561 3.17189 3.08481 2.98989 3.0976C2.80789 3.0976 2.66489 3.2512 2.67789 3.4304L2.93789 11.3792C2.93789 11.9552 3.40589 12.416 3.99089 12.416H9.00889C9.58089 12.416 10.0619 11.9552 10.0619 11.392L10.3219 3.4432C10.3219 3.2512 10.1919 3.1104 10.0099 3.0976ZM10.6599 1.8176H2.33989C2.15789 1.8176 2.01489 1.9584 2.01489 2.1376C2.01489 2.31681 2.15789 2.4576 2.33989 2.4576H10.6599C10.8419 2.4576 10.9849 2.31681 10.9849 2.1376C10.9849 1.9584 10.8419 1.8176 10.6599 1.8176ZM4.48489 1.5488C4.66689 1.5488 4.80989 1.408 4.80989 1.2288C4.80989 1.1264 4.90089 1.0368 5.00489 1.0368H8.00789C8.11189 1.0368 8.20289 1.1264 8.20289 1.2288C8.20289 1.408 8.34589 1.5488 8.52789 1.5488C8.70989 1.5488 8.83989 1.3952 8.83989 1.2288C8.83989 0.768005 8.46289 0.396805 7.99489 0.396805H5.00489C4.53689 0.396805 4.15989 0.768005 4.15989 1.2288C4.15989 1.3952 4.30289 1.5488 4.48489 1.5488Z" fill="black"/>
</svg>
