<svg width="16" height="20" viewBox="0 0 16 20" fill="none" xmlns="http://www.w3.org/2000/svg">
<path d="M13.0667 12.4667C13.0667 13.0667 12.6001 13.5333 12.0001 13.5333H3.46673C2.86673 13.5333 2.40007 13.0667 2.40007 12.4667V4C2.40007 3.4 2.86673 2.93333 3.46673 2.93333H8.46673V2.2H3.46673C2.5334 2.2 1.7334 3 1.7334 4V12.5333C1.7334 13.5333 2.5334 14.3333 3.5334 14.3333H12.0001C13.0001 14.3333 13.8001 13.5333 13.8001 12.5333V7.6H13.0667V12.4667Z" fill="black"/>
<path d="M13.8668 2.13334C13.3334 1.6 12.4001 1.6 11.8668 2.13334L7.13345 6.86667C7.06678 6.93334 7.06678 7 7.06678 7L6.53345 9C6.53345 9.13334 6.53345 9.26667 6.60011 9.33334C6.66678 9.4 6.73345 9.46667 6.86678 9.46667H6.93345L8.93345 8.93334C9.00011 8.93334 9.06678 8.86667 9.06678 8.86667L13.8001 4.13334C14.0668 3.86667 14.2001 3.53334 14.2001 3.13334C14.2001 2.73334 14.1334 2.4 13.8668 2.13334ZM8.66678 8.33334L7.33345 8.66667L7.66678 7.33334L11.6001 3.4L12.6001 4.4L8.66678 8.33334ZM13.4001 3.6L13.1334 3.86667L12.1334 2.86667L12.4001 2.6C12.6668 2.33334 13.1334 2.33334 13.4001 2.6C13.5334 2.73334 13.6001 2.93334 13.6001 3.13334C13.6001 3.33334 13.5334 3.46667 13.4001 3.6Z" fill="black"/>
</svg>
