<svg width="13" height="16" viewBox="0 0 13 16" fill="none" xmlns="http://www.w3.org/2000/svg">
<path d="M5.55089 11.008C5.73289 11.008 5.87589 10.8544 5.87589 10.688L5.74589 3.41759C5.74589 3.23839 5.60289 3.09759 5.42089 3.09759C5.23889 3.09759 5.09589 3.25119 5.09589 3.41759L5.22589 10.688C5.22589 10.8672 5.36889 11.008 5.55089 11.008ZM7.44889 11.008C7.63089 11.008 7.77389 10.8672 7.77389 10.688L7.90389 3.41759C7.90389 3.23839 7.76089 3.09759 7.57889 3.09759C7.39689 3.09759 7.25389 3.23839 7.25389 3.41759L7.12389 10.688C7.12389 10.8544 7.26689 11.008 7.44889 11.008ZM10.0099 3.09759C9.82789 3.09759 9.68489 3.22559 9.67189 3.40479L9.41189 11.3664C9.41189 11.584 9.22989 11.7632 9.00889 11.7632H3.99089C3.76989 11.7632 3.58789 11.584 3.58789 11.3536L3.32789 3.40479C3.32789 3.22559 3.17189 3.08479 2.98989 3.09759C2.80789 3.09759 2.66489 3.25119 2.67789 3.43039L2.93789 11.3792C2.93789 11.9552 3.40589 12.416 3.99089 12.416H9.00889C9.58089 12.416 10.0619 11.9552 10.0619 11.392L10.3219 3.44319C10.3219 3.25119 10.1919 3.11039 10.0099 3.09759ZM10.6599 1.81759H2.33989C2.15789 1.81759 2.01489 1.95839 2.01489 2.13759C2.01489 2.31679 2.15789 2.45759 2.33989 2.45759H10.6599C10.8419 2.45759 10.9849 2.31679 10.9849 2.13759C10.9849 1.95839 10.8419 1.81759 10.6599 1.81759ZM4.48489 1.54879C4.66689 1.54879 4.80989 1.40799 4.80989 1.22879C4.80989 1.12639 4.90089 1.03679 5.00489 1.03679H8.00789C8.11189 1.03679 8.20289 1.12639 8.20289 1.22879C8.20289 1.40799 8.34589 1.54879 8.52789 1.54879C8.70989 1.54879 8.83989 1.39519 8.83989 1.22879C8.83989 0.76799 8.46289 0.39679 7.99489 0.39679H5.00489C4.53689 0.39679 4.15989 0.76799 4.15989 1.22879C4.15989 1.39519 4.30289 1.54879 4.48489 1.54879Z" fill="black"/>
</svg>
