<svg width="13" height="16" viewBox="0 0 13 16" fill="none" xmlns="http://www.w3.org/2000/svg">
<path d="M5.55089 11.0081C5.73289 11.0081 5.87589 10.8545 5.87589 10.6881L5.74589 3.41765C5.74589 3.23845 5.60289 3.09765 5.42089 3.09765C5.23889 3.09765 5.09589 3.25125 5.09589 3.41765L5.22589 10.6881C5.22589 10.8673 5.36889 11.0081 5.55089 11.0081ZM7.44889 11.0081C7.63089 11.0081 7.77389 10.8673 7.77389 10.6881L7.90389 3.41765C7.90389 3.23845 7.76089 3.09765 7.57889 3.09765C7.39689 3.09765 7.25389 3.23845 7.25389 3.41765L7.12389 10.6881C7.12389 10.8545 7.26689 11.0081 7.44889 11.0081ZM10.0099 3.09765C9.82789 3.09765 9.68489 3.22565 9.67189 3.40485L9.41189 11.3665C9.41189 11.5841 9.22989 11.7633 9.00889 11.7633H3.99089C3.76989 11.7633 3.58789 11.5841 3.58789 11.3537L3.32789 3.40485C3.32789 3.22565 3.17189 3.08485 2.98989 3.09765C2.80789 3.09765 2.66489 3.25125 2.67789 3.43045L2.93789 11.3793C2.93789 11.9553 3.40589 12.4161 3.99089 12.4161H9.00889C9.58089 12.4161 10.0619 11.9553 10.0619 11.3921L10.3219 3.44325C10.3219 3.25125 10.1919 3.11045 10.0099 3.09765ZM10.6599 1.81765H2.33989C2.15789 1.81765 2.01489 1.95845 2.01489 2.13765C2.01489 2.31685 2.15789 2.45765 2.33989 2.45765H10.6599C10.8419 2.45765 10.9849 2.31685 10.9849 2.13765C10.9849 1.95845 10.8419 1.81765 10.6599 1.81765ZM4.48489 1.54885C4.66689 1.54885 4.80989 1.40805 4.80989 1.22885C4.80989 1.12645 4.90089 1.03685 5.00489 1.03685H8.00789C8.11189 1.03685 8.20289 1.12645 8.20289 1.22885C8.20289 1.40805 8.34589 1.54885 8.52789 1.54885C8.70989 1.54885 8.83989 1.39525 8.83989 1.22885C8.83989 0.768051 8.46289 0.396851 7.99489 0.396851H5.00489C4.53689 0.396851 4.15989 0.768051 4.15989 1.22885C4.15989 1.39525 4.30289 1.54885 4.48489 1.54885Z" fill="black"/>
</svg>
