<svg width="16" height="20" viewBox="0 0 16 20" fill="none" xmlns="http://www.w3.org/2000/svg">
<path d="M13.0667 12.4666C13.0667 13.0666 12.6001 13.5333 12.0001 13.5333H3.46673C2.86673 13.5333 2.40007 13.0666 2.40007 12.4666V3.99995C2.40007 3.39995 2.86673 2.93328 3.46673 2.93328H8.46673V2.19995H3.46673C2.5334 2.19995 1.7334 2.99995 1.7334 3.99995V12.5333C1.7334 13.5333 2.5334 14.3333 3.5334 14.3333H12.0001C13.0001 14.3333 13.8001 13.5333 13.8001 12.5333V7.59995H13.0667V12.4666Z" fill="black"/>
<path d="M13.8668 2.13328C13.3334 1.59994 12.4001 1.59994 11.8668 2.13328L7.13345 6.86661C7.06678 6.93328 7.06678 6.99994 7.06678 6.99994L6.53345 8.99994C6.53345 9.13328 6.53345 9.26661 6.60011 9.33328C6.66678 9.39994 6.73345 9.46661 6.86678 9.46661H6.93345L8.93345 8.93328C9.00011 8.93328 9.06678 8.86661 9.06678 8.86661L13.8001 4.13328C14.0668 3.86661 14.2001 3.53328 14.2001 3.13328C14.2001 2.73328 14.1334 2.39994 13.8668 2.13328ZM8.66678 8.33328L7.33345 8.66661L7.66678 7.33328L11.6001 3.39994L12.6001 4.39994L8.66678 8.33328ZM13.4001 3.59994L13.1334 3.86661L12.1334 2.86661L12.4001 2.59994C12.6668 2.33328 13.1334 2.33328 13.4001 2.59994C13.5334 2.73328 13.6001 2.93328 13.6001 3.13328C13.6001 3.33328 13.5334 3.46661 13.4001 3.59994Z" fill="black"/>
</svg>
