<svg width="310" height="40" viewBox="0 0 310 40" fill="none" xmlns="http://www.w3.org/2000/svg">
<g filter="url(#filter0_d)">
<g filter="url(#filter1_d)">
<path d="M2 5C2 2.79086 3.79086 1 6 1H304C306.209 1 308 2.79086 308 5V33C308 35.2091 306.209 37 304 37H6C3.79086 37 2 35.2091 2 33V5Z" fill="white"/>
<path d="M11.1186 24H17.5618V22.6776H12.6548V19.5604H17.169V18.2429H12.6548V15.1406H17.5021V13.8182H11.1186V24ZM20.9213 19.4659C20.9213 18.2479 21.6671 17.5518 22.7012 17.5518C23.7104 17.5518 24.3219 18.2131 24.3219 19.3217V24H25.8084V19.1428C25.8084 17.2536 24.7694 16.2642 23.2083 16.2642C22.0598 16.2642 21.3091 16.7962 20.9561 17.6065H20.8617V16.3636H19.4348V24H20.9213V19.4659ZM31.3667 16.3636H29.8006V14.5341H28.3141V16.3636H27.1955V17.5568H28.3141V22.0661C28.3091 23.4531 29.3681 24.1243 30.5414 24.0994C31.0137 24.0945 31.3319 24.005 31.5059 23.9403L31.2374 22.7124C31.138 22.7322 30.954 22.777 30.7154 22.777C30.2331 22.777 29.8006 22.6179 29.8006 21.7578V17.5568H31.3667V16.3636ZM36.2202 24.1541C37.8857 24.1541 39.0639 23.3338 39.402 22.0909L37.995 21.8374C37.7266 22.5582 37.0803 22.9261 36.2351 22.9261C34.9624 22.9261 34.1072 22.1009 34.0675 20.6293H39.4964V20.1023C39.4964 17.343 37.8459 16.2642 36.1158 16.2642C33.9879 16.2642 32.5859 17.8849 32.5859 20.2315C32.5859 22.603 33.968 24.1541 36.2202 24.1541ZM34.0724 19.5156C34.1321 18.4318 34.9176 17.4922 36.1257 17.4922C37.2791 17.4922 38.0348 18.3473 38.0398 19.5156H34.0724ZM41.1458 24H42.6323V19.3366C42.6323 18.3374 43.4029 17.6165 44.4569 17.6165C44.7651 17.6165 45.1131 17.6712 45.2324 17.706V16.2841C45.0833 16.2642 44.79 16.2493 44.601 16.2493C43.7061 16.2493 42.9405 16.7564 42.6621 17.5767H42.5826V16.3636H41.1458V24ZM53.4405 24.1541C55.2452 24.1541 56.4135 23.0703 56.5776 21.5838H55.1309C54.9419 22.4091 54.3006 22.8963 53.4505 22.8963C52.1926 22.8963 51.3823 21.8473 51.3823 20.1818C51.3823 18.5462 52.2076 17.517 53.4505 17.517C54.3951 17.517 54.9718 18.1136 55.1309 18.8295H56.5776C56.4185 17.2884 55.1607 16.2642 53.4256 16.2642C51.2729 16.2642 49.8809 17.8849 49.8809 20.2166C49.8809 22.5185 51.2232 24.1541 53.4405 24.1541ZM61.3839 24.1541C63.5366 24.1541 64.9435 22.5781 64.9435 20.2166C64.9435 17.8402 63.5366 16.2642 61.3839 16.2642C59.2312 16.2642 57.8242 17.8402 57.8242 20.2166C57.8242 22.5781 59.2312 24.1541 61.3839 24.1541ZM61.3888 22.9062C59.9819 22.9062 59.3256 21.6783 59.3256 20.2116C59.3256 18.75 59.9819 17.5071 61.3888 17.5071C62.7859 17.5071 63.4421 18.75 63.4421 20.2116C63.4421 21.6783 62.7859 22.9062 61.3888 22.9062ZM68.0893 19.4659C68.0893 18.2479 68.835 17.5518 69.8691 17.5518C70.8784 17.5518 71.4899 18.2131 71.4899 19.3217V24H72.9764V19.1428C72.9764 17.2536 71.9373 16.2642 70.3762 16.2642C69.2278 16.2642 68.4771 16.7962 68.1241 17.6065H68.0297V16.3636H66.6028V24H68.0893V19.4659ZM78.5346 16.3636H76.9686V14.5341H75.4821V16.3636H74.3635V17.5568H75.4821V22.0661C75.4771 23.4531 76.536 24.1243 77.7093 24.0994C78.1816 24.0945 78.4998 24.005 78.6738 23.9403L78.4054 22.7124C78.3059 22.7322 78.122 22.777 77.8833 22.777C77.4011 22.777 76.9686 22.6179 76.9686 21.7578V17.5568H78.5346V16.3636ZM82.4013 24.169C83.6641 24.169 84.375 23.5277 84.6584 22.956H84.718V24H86.1697V18.929C86.1697 16.7067 84.4197 16.2642 83.2067 16.2642C81.8246 16.2642 80.5518 16.821 80.0547 18.2131L81.4517 18.5312C81.6705 17.9893 82.2273 17.4673 83.2266 17.4673C84.1861 17.4673 84.6783 17.9695 84.6783 18.8345V18.8693C84.6783 19.4112 84.1214 19.4013 82.7493 19.5604C81.3026 19.7294 79.821 20.1072 79.821 21.8423C79.821 23.3438 80.9496 24.169 82.4013 24.169ZM82.7244 22.9759C81.8842 22.9759 81.2777 22.598 81.2777 21.8622C81.2777 21.0668 81.9837 20.7834 82.8438 20.669C83.326 20.6044 84.4695 20.4751 84.6832 20.2614V21.2457C84.6832 22.1506 83.9624 22.9759 82.7244 22.9759ZM91.3663 24.1541C93.171 24.1541 94.3393 23.0703 94.5034 21.5838H93.0566C92.8677 22.4091 92.2264 22.8963 91.3762 22.8963C90.1184 22.8963 89.3081 21.8473 89.3081 20.1818C89.3081 18.5462 90.1333 17.517 91.3762 17.517C92.3208 17.517 92.8975 18.1136 93.0566 18.8295H94.5034C94.3443 17.2884 93.0865 16.2642 91.3514 16.2642C89.1987 16.2642 87.8066 17.8849 87.8066 20.2166C87.8066 22.5185 89.149 24.1541 91.3663 24.1541ZM99.6577 16.3636H98.0916V14.5341H96.6051V16.3636H95.4865V17.5568H96.6051V22.0661C96.6001 23.4531 97.6591 24.1243 98.8324 24.0994C99.3047 24.0945 99.6229 24.005 99.7969 23.9403L99.5284 22.7124C99.429 22.7322 99.245 22.777 99.0064 22.777C98.5241 22.777 98.0916 22.6179 98.0916 21.7578V17.5568H99.6577V16.3636ZM106.494 19.4659C106.494 18.2479 107.239 17.5518 108.273 17.5518C109.283 17.5518 109.894 18.2131 109.894 19.3217V24H111.381V19.1428C111.381 17.2536 110.342 16.2642 108.781 16.2642C107.632 16.2642 106.881 16.7962 106.528 17.6065H106.434V16.3636H105.007V24H106.494V19.4659ZM118.212 20.8331C118.217 22.1307 117.252 22.7472 116.417 22.7472C115.497 22.7472 114.861 22.081 114.861 21.0419V16.3636H113.374V21.2209C113.374 23.1151 114.413 24.0994 115.88 24.0994C117.028 24.0994 117.809 23.4929 118.162 22.6776H118.241V24H119.703V16.3636H118.212V20.8331ZM121.7 24H123.187V19.2919C123.187 18.2628 123.908 17.5469 124.753 17.5469C125.578 17.5469 126.15 18.0938 126.15 18.924V24H127.632V19.1328C127.632 18.2131 128.193 17.5469 129.163 17.5469C129.948 17.5469 130.595 17.9844 130.595 19.0185V24H132.081V18.8793C132.081 17.1342 131.107 16.2642 129.725 16.2642C128.626 16.2642 127.801 16.7912 127.433 17.6065H127.353C127.02 16.7713 126.319 16.2642 125.3 16.2642C124.291 16.2642 123.54 16.7663 123.222 17.6065H123.127V16.3636H121.7V24ZM134.193 24H135.645V22.8118H135.769C136.037 23.299 136.584 24.1491 137.976 24.1491C139.826 24.1491 141.168 22.6676 141.168 20.1967C141.168 17.7209 139.806 16.2642 137.961 16.2642C136.544 16.2642 136.032 17.1293 135.769 17.6016H135.679V13.8182H134.193V24ZM135.65 20.1818C135.65 18.5859 136.346 17.527 137.643 17.527C138.99 17.527 139.667 18.6655 139.667 20.1818C139.667 21.7131 138.971 22.8814 137.643 22.8814C136.365 22.8814 135.65 21.7876 135.65 20.1818ZM146.128 24.1541C147.794 24.1541 148.972 23.3338 149.31 22.0909L147.903 21.8374C147.635 22.5582 146.988 22.9261 146.143 22.9261C144.871 22.9261 144.015 22.1009 143.976 20.6293H149.405V20.1023C149.405 17.343 147.754 16.2642 146.024 16.2642C143.896 16.2642 142.494 17.8849 142.494 20.2315C142.494 22.603 143.876 24.1541 146.128 24.1541ZM143.981 19.5156C144.04 18.4318 144.826 17.4922 146.034 17.4922C147.187 17.4922 147.943 18.3473 147.948 19.5156H143.981ZM151.054 24H152.54V19.3366C152.54 18.3374 153.311 17.6165 154.365 17.6165C154.673 17.6165 155.021 17.6712 155.141 17.706V16.2841C154.991 16.2642 154.698 16.2493 154.509 16.2493C153.614 16.2493 152.849 16.7564 152.57 17.5767H152.491V16.3636H151.054V24Z" fill="#4F566B"/>
<path d="M6 2H304V0H6V2ZM307 5V33H309V5H307ZM304 36H6V38H304V36ZM3 33V5H1V33H3ZM6 36C4.34315 36 3 34.6569 3 33H1C1 35.7614 3.23858 38 6 38V36ZM307 33C307 34.6569 305.657 36 304 36V38C306.761 38 309 35.7614 309 33H307ZM304 2C305.657 2 307 3.34315 307 5H309C309 2.23858 306.761 0 304 0V2ZM6 0C3.23858 0 1 2.23858 1 5H3C3 3.34315 4.34315 2 6 2V0Z" fill="#E3E8EE"/>
</g>
</g>
<defs>
<filter id="filter0_d" x="0" y="0" width="310" height="40" filterUnits="userSpaceOnUse" color-interpolation-filters="sRGB">
<feFlood flood-opacity="0" result="BackgroundImageFix"/>
<feColorMatrix in="SourceAlpha" type="matrix" values="0 0 0 0 0 0 0 0 0 0 0 0 0 0 0 0 0 0 127 0" result="hardAlpha"/>
<feOffset dy="1"/>
<feGaussianBlur stdDeviation="1"/>
<feColorMatrix type="matrix" values="0 0 0 0 0.215686 0 0 0 0 0.254902 0 0 0 0 0.317647 0 0 0 0.08 0"/>
<feBlend mode="normal" in2="BackgroundImageFix" result="effect1_dropShadow"/>
<feBlend mode="normal" in="SourceGraphic" in2="effect1_dropShadow" result="shape"/>
</filter>
<filter id="filter1_d" x="0" y="0" width="310" height="40" filterUnits="userSpaceOnUse" color-interpolation-filters="sRGB">
<feFlood flood-opacity="0" result="BackgroundImageFix"/>
<feColorMatrix in="SourceAlpha" type="matrix" values="0 0 0 0 0 0 0 0 0 0 0 0 0 0 0 0 0 0 127 0" result="hardAlpha"/>
<feOffset dy="1"/>
<feGaussianBlur stdDeviation="1"/>
<feColorMatrix type="matrix" values="0 0 0 0 0.215686 0 0 0 0 0.254902 0 0 0 0 0.317647 0 0 0 0.08 0"/>
<feBlend mode="normal" in2="BackgroundImageFix" result="effect1_dropShadow"/>
<feBlend mode="normal" in="SourceGraphic" in2="effect1_dropShadow" result="shape"/>
</filter>
</defs>
</svg>
